<?xml version="1.0" encoding="UTF-8"?><svg id="k" xmlns="http://www.w3.org/2000/svg" width="685.59066207" height="287.15859118" xmlns:xlink="http://www.w3.org/1999/xlink" viewBox="0 0 685.59066207 287.15859118"><defs><style>.l,.m{fill:none;stroke-linecap:square;stroke-width:3.5px;}.l,.m,.n,.o{stroke-linejoin:round;}.l,.n{stroke:#368bbd;}.m,.o{stroke:#e24c33;}.p{fill:#010101;}.p,.q,.r,.s{stroke-width:0px;}.q{fill:rgba(116,116,116,.80000001);}.r,.n{fill:#368bbd;}.s{fill:#fff;}.n,.o{stroke-linecap:round;stroke-width:.5px;}.o{fill:#e24c33;}</style><symbol id="a" viewBox="0 0 7.796875 4.40625"><path class="p" d="m.78125,3.421875V.75c0-.4375-.109375-.4375-.78125-.4375v-.3125c.359375.015625.859375.03125,1.140625.03125.25,0,.765625-.015625,1.109375-.03125v.3125c-.671875,0-.78125,0-.78125.4375v1.84375c0,1.03125.71875,1.59375,1.34375,1.59375.640625,0,.75-.53125.75-1.109375V.75c0-.4375-.109375-.4375-.78125-.4375v-.3125c.34375.015625.859375.03125,1.125.03125.25,0,.78125-.015625,1.109375-.03125v.3125c-.65625,0-.765625,0-.765625.4375v1.84375c0,1.03125.703125,1.59375,1.34375,1.59375.625,0,.734375-.53125.734375-1.109375V.75c0-.4375-.109375-.4375-.78125-.4375v-.3125c.34375.015625.859375.03125,1.125.03125s.78125-.015625,1.125-.03125v.3125c-.515625,0-.765625,0-.78125.296875v1.90625c0,.859375,0,1.15625-.3125,1.515625-.140625.171875-.46875.375-1.046875.375-.828125,0-1.28125-.59375-1.4375-.984375-.140625.875-.875.984375-1.328125.984375-.734375,0-1.203125-.421875-1.484375-1.046875v1.046875l-1.40625-.109375v-.3125c.703125,0,.78125-.0625.78125-.5625Z"/></symbol><symbol id="b" viewBox="0 0 2.140625 6.671875"><path class="p" d="m1.4375,4.40625l-1.390625-.109375v-.3125c.640625,0,.734375-.0625.734375-.546875V.75c0-.4375-.109375-.4375-.78125-.4375v-.3125c.3125.015625.859375.03125,1.09375.03125.359375,0,.703125-.015625,1.046875-.03125v.3125c-.671875,0-.703125.046875-.703125.4375v3.65625Zm.03125,1.734375c0,.3125-.234375.53125-.515625.53125-.3125,0-.53125-.265625-.53125-.53125s.21875-.53125.53125-.53125c.28125,0,.515625.21875.515625.53125Z"/></symbol><symbol id="c" viewBox="0 0 5.015625 4.40625"><path class="p" d="m.78125,3.421875V.75c0-.4375-.109375-.4375-.78125-.4375v-.3125c.359375.015625.859375.03125,1.140625.03125.25,0,.765625-.015625,1.109375-.03125v.3125c-.671875,0-.78125,0-.78125.4375v1.84375c0,1.03125.71875,1.59375,1.34375,1.59375.640625,0,.75-.53125.75-1.109375V.75c0-.4375-.109375-.4375-.78125-.4375v-.3125c.34375.015625.859375.03125,1.125.03125.25,0,.78125-.015625,1.109375-.03125v.3125c-.515625,0-.765625,0-.765625.296875v1.90625c0,.859375,0,1.15625-.3125,1.515625-.140625.171875-.46875.375-1.046875.375-.734375,0-1.203125-.421875-1.484375-1.046875v1.046875l-1.40625-.109375v-.3125c.703125,0,.78125-.0625.78125-.5625Z"/></symbol><symbol id="d" viewBox="0 0 3.265625 4.578125"><path class="p" d="m1.75,2.046875c.21875-.046875,1.03125-.203125,1.03125-.921875,0-.5-.34375-.90625-1.125-.90625C.8125.21875.453125.78125.265625,1.640625c-.03125.125-.03125.15625-.140625.15625-.125,0-.125-.0625-.125-.234375V.234375c0-.171875,0-.234375.109375-.234375.046875,0,.0625.015625.25.203125.015625.015625.015625.03125.203125.21875.4375-.40625.890625-.421875,1.09375-.421875,1.140625,0,1.609375.671875,1.609375,1.390625,0,.515625-.296875.828125-.421875.9375-.328125.328125-.71875.40625-1.140625.484375-.5625.109375-1.21875.234375-1.21875.8125,0,.359375.25.765625,1.109375.765625,1.09375,0,1.15625-.90625,1.171875-1.203125,0-.09375.09375-.09375.109375-.09375.140625,0,.140625.046875.140625.234375v1.015625c0,.15625,0,.234375-.109375.234375-.046875,0-.078125,0-.203125-.125-.03125-.03125-.125-.125-.171875-.15625-.375.28125-.78125.28125-.9375.28125-1.21875,0-1.59375-.671875-1.59375-1.234375,0-.34375.15625-.625.421875-.84375.328125-.25.609375-.3125,1.328125-.453125Z"/></symbol><symbol id="e" viewBox="0 0 1.046875 1.0625"><path class="p" d="m1.046875.53125c0,.28125-.234375.53125-.515625.53125-.296875,0-.53125-.25-.53125-.53125C0,.234375.234375,0,.53125,0c.28125,0,.515625.234375.515625.53125Z"/></symbol><symbol id="f" viewBox="0 0 3.125 6.234375"><path class="p" d="m1.53125,4.09375h1.4375v.3125h-1.4375v1.828125h-.25c0-.8125-.296875-1.875-1.28125-1.921875v-.21875h.84375V1.34375C.84375.125,1.78125,0,2.140625,0c.703125,0,.984375.703125.984375,1.34375v.5625h-.25v-.546875c0-.734375-.296875-1.109375-.671875-1.109375-.671875,0-.671875.90625-.671875,1.078125v2.765625Z"/></symbol><symbol id="g" viewBox="0 0 2.640625 6.390625"><path class="p" d="m0,.359375c0-.15625,0-.359375.203125-.359375.21875,0,.21875.203125.21875.359375v5.671875c0,.15625,0,.359375-.203125.359375-.21875,0-.21875-.1875-.21875-.359375V.359375ZM2.203125.359375c0-.15625,0-.359375.21875-.359375s.21875.203125.21875.359375v5.671875c0,.15625,0,.359375-.21875.359375s-.21875-.1875-.21875-.359375V.359375Z"/></symbol><symbol id="h" viewBox="0 0 6.09375 .390625"><path class="p" d="m5.734375,0c.171875,0,.359375,0,.359375.203125,0,.1875-.1875.1875-.359375.1875H.34375c-.171875,0-.34375,0-.34375-.1875,0-.203125.171875-.203125.34375-.203125h5.390625Z"/></symbol><symbol id="i" viewBox="0 0 4.96875 9.296875"><path class="p" d="m4.890625,8.90625c.078125.140625.078125.15625.078125.1875,0,.078125-.0625.203125-.203125.203125-.109375,0-.140625-.0625-.21875-.203125L.078125.390625c-.078125-.140625-.078125-.15625-.078125-.1875,0-.078125.0625-.203125.1875-.203125s.15625.0625.21875.203125l4.484375,8.703125Z"/></symbol><symbol id="j" viewBox="0 0 4.984375 5.796875"><path class="p" d="m4.640625,2.703125c.15625,0,.34375,0,.34375.203125,0,.1875-.1875.1875-.34375.1875H.40625c.125,1.34375,1.265625,2.296875,2.671875,2.296875h1.5625c.15625,0,.34375,0,.34375.203125s-.1875.203125-.34375.203125h-1.578125c-1.703125,0-3.0625-1.296875-3.0625-2.890625C0,1.296875,1.359375,0,3.0625,0h1.578125c.15625,0,.34375,0,.34375.203125s-.1875.203125-.34375.203125h-1.5625C1.671875.40625.53125,1.359375.40625,2.703125h4.234375Z"/></symbol></defs><use width="7.796875" height="4.40625" transform="translate(255.69593504 96.70919966) scale(6.15928692 -6.15928692)" xlink:href="#a"/><use width="2.140625" height="6.671875" transform="translate(306.92555797 96.70919966) scale(6.15928692 -6.15928692)" xlink:href="#b"/><use width="5.015625" height="4.40625" transform="translate(323.87582069 96.70919966) scale(6.15928692 -6.15928692)" xlink:href="#c"/><use width="2.640625" height="6.390625" transform="translate(426.35514959 64.25283421) scale(6.15928692 -6.15928692)" xlink:href="#g"/><use width="2.640625" height="6.390625" transform="translate(426.35514959 101.07305387) scale(6.15928692 -6.15928692)" xlink:href="#g"/><use width="2.640625" height="6.390625" transform="translate(426.35514959 137.89326913) scale(6.15928692 -6.15928692)" xlink:href="#g"/><use width="6.09375" height=".390625" transform="translate(542.45078571 82.56208752) scale(6.15928692 -6.15928692)" xlink:href="#h"/><use width="2.640625" height="6.390625" transform="translate(667.6629441 64.25283421) scale(6.15928692 -6.15928692)" xlink:href="#g"/><use width="2.640625" height="6.390625" transform="translate(667.6629441 101.07305387) scale(6.15928692 -6.15928692)" xlink:href="#g"/><use width="2.640625" height="6.390625" transform="translate(667.6629441 137.89326913) scale(6.15928692 -6.15928692)" xlink:href="#g"/><use width="3.265625" height="4.578125" transform="translate(275.90224486 232.72193097) scale(6.15928692 -6.15928692)" xlink:href="#d"/><use width="1.046875" height="1.0625" transform="translate(303.37573976 232.04825896) scale(6.15928692 -6.15928692)" xlink:href="#e"/><use width="3.125" height="6.234375" transform="translate(316.28397631 232.72193097) scale(6.15928692 -6.15928692)" xlink:href="#f"/><use width="4.96875" height="9.296875" transform="translate(500.69833923 245.32922138) scale(6.15928692 -6.15928692)" xlink:href="#i"/><use width="4.984375" height="5.796875" transform="translate(497.23374034 234.55046927) scale(6.15928692 -6.15928692)" xlink:href="#j"/><path class="s" d="m0,255.10919551h175.4691133V0H0v255.10919551Z"/><path class="q" d="m87.36463718,170.36979328c21.04961118,0,41.24005456-8.36893082,56.13229648-23.25321749,14.88428667-14.88428667,23.25321749-35.0826853,23.25321749-56.13229648,0-21.05756644-8.36893082-41.24800981-23.25321749-56.14025174-14.89224192-14.88428667-35.0826853-23.2452632-56.13229648-23.2452632-21.05756644,0-41.24800981,8.36097654-56.14025174,23.2452632-14.88428472,14.89224192-23.24526175,35.0826853-23.24526175,56.14025174,0,21.04961118,8.36097702,41.24800981,23.24526175,56.13229648,14.89224192,14.88428667,35.0826853,23.25321749,56.14025174,23.25321749Z"/><path class="m" d="m97.40417206,231.37866257l1.05804924-4.55040725.95463089-4.57427303.86712306-4.59018354.77961523-4.5981388.71597317-4.61404931.64437585-4.62995983.58073379-4.62995983.52504699-4.63791509.47731545-4.64587034.43753916-4.6538256.38980761-4.6538256.35003133-4.6538256.3182103-4.66178086.29434453-4.66178086.2625235-4.66178086.23865772-4.66178086.21479195-4.66178086.19092618-4.66973612.17501566-4.66178086.15910515-4.66973612.14319463-4.66973612"/><path class="r" d="m97.40417206,243.51838542c3.22187926,0,6.30851915-1.28079645,8.58372278-3.55600007s3.55600007-5.36979877,3.55600007-8.58372278c0-3.22187926-1.28079645-6.30851915-3.55600007-8.59167803-2.27520363-2.27520363-5.36184351-3.55600007-8.58372278-3.55600007s-6.30851915,1.28079645-8.58372278,3.55600007c-2.28315888,2.28315888-3.55600007,5.36979877-3.55600007,8.59167803,0,3.213924,1.27284119,6.30851915,3.55600007,8.58372278,2.27520363,2.27520363,5.36184351,3.55600007,8.58372278,3.55600007Z"/><path class="l" d="m97.40417206,231.37866257l1.20124387-4.51063097,1.40808057-4.45494416,1.59900674-4.39130211,1.78993292-4.31174953,1.98881436-4.2242417,2.16383002-4.13673387,2.34680094-4.03331552,2.52181661-3.92989717,2.69683227-3.81852357,2.85593742-3.69123945,3.02299783-3.56395533,3.18210297-3.41280544,3.33325287-3.26165555,3.49235802-3.11050566,3.61168688-2.95140051,3.71510522-2.83207165,3.74692625-2.7843401,3.72306048-2.82411639,3.63555265-2.92753474,3.52417904-3.06277411,3.40485018-3.19801349"/><path class="n" d="m145.14367195,154.37972583c6.8972082-3.16619246,13.78646114-6.34034018,20.68366934-9.50653264-1.59900674,7.41429993-3.19801349,14.83655512-4.80497549,22.25085505l-15.87869385-12.74432241Z"/><path class="o" d="m96.89503559,139.48748391c3.54804482-6.70628202,7.09608963-13.4205193,10.64413445-20.12680132l9.71336933,20.59616151-20.35750378-.46936019Z"/><path class="m" d="m616.30434766,132.18222066l1.05804924-4.55040725.95463089-4.57427303.86712306-4.59018354.77961523-4.5981388.71597317-4.61404931.64437585-4.62995983.58073379-4.62995983.52504699-4.63791509.47731545-4.64587034.43753916-4.6538256.38980761-4.6538256.35003133-4.6538256.3182103-4.66178086.29434453-4.66178086.2625235-4.66178086.23865772-4.66178086.21479195-4.66178086.19092618-4.66973612.17501566-4.66178086.15910515-4.66973612.14319463-4.66973612"/><path class="o" d="m615.79521118,40.291042c3.54804482-6.70628202,7.09608963-13.4205193,10.64413445-20.12680132,3.23778978,6.86538717,6.47557955,13.73077434,9.71336933,20.59616151l-20.35750378-.46936019Z"/><path class="l" d="m457.71602741,128.76543759l1.20124387-4.51063097,1.40808057-4.45494416,1.59900674-4.39130211,1.78993292-4.31174953,1.98881436-4.2242417,2.16383002-4.13673387,2.34680094-4.03331552,2.52181661-3.92989717,2.69683227-3.81852357,2.85593742-3.69123945,3.02299783-3.56395533,3.18210297-3.41280544,3.33325287-3.26165555,3.49235802-3.11050566,3.61168688-2.95140051,3.71510522-2.83207165,3.74692625-2.7843401,3.72306048-2.82411639,3.63555265-2.92753474,3.52417904-3.06277411,3.40485018-3.19801349"/><path class="n" d="m505.45552729,51.76650085c6.8972082-3.16619246,13.78646114-6.34034018,20.68366934-9.50653264-1.59900674,7.41429993-3.19801349,14.83655512-4.80497549,22.25085505l-15.87869385-12.74432241Z"/><polygon class="r" points="291.2436097 148.90669261 287.77603431 147.98260654 288.84278805 143.97890103 289.57464819 141.65717233 290.40412307 139.37348835 291.33421619 137.12885025 292.36893228 134.92626158 293.49175192 132.77573409 294.71218628 130.67526543 296.02272654 128.6298615 297.42437388 126.64152463 298.90861829 124.7202666 300.48146684 122.86408505 302.13941541 121.08299175 303.87445458 119.38199259 305.69409318 117.75908521 307.57029826 116.22328019 313.25197587 111.93423934 315.04107858 110.49254493 316.76360304 108.99378346 319.73409422 106.2025029 322.19048118 108.81757636 319.16892999 111.65591222 317.34328433 113.2447796 315.46157278 114.76156226 309.79341106 119.03959017 308.02283011 120.48829281 306.32283213 122.00407429 304.70643239 123.58893696 303.16161679 125.2478867 301.69589414 126.97892117 300.30926446 128.77503211 298.99772302 130.63421719 297.77278336 132.54646463 296.63244313 134.50977208 295.58220881 136.52213719 294.61457155 138.58055643 293.74705197 140.67501802 292.97114005 142.81152904 292.28683579 144.98107888 291.2436097 148.90669261"/><path class="r" d="m314.0037631,107.9498507c3.47208069-1.59387326,6.94015668-3.19175123,10.41223737-4.78562449-.80494604,3.73238663-1.60989209,7.46877796-2.41884284,11.20116459l-7.99339454-6.41554011Z"/><path class="r" d="m321.99725408,114.62139752c-.05756766,0-.11413414-.01902236-.16018827-.05606589l-7.99339454-6.41554011c-.06958178-.05606589-.10512355-.14316826-.09411061-.23127181s.06657825-.16519415.14717297-.20223769l10.41223737-4.78562449c.08910472-.03904589.19072416-.02703177.26781476.03303883.07558884.06107178.11012943.15918709.0901059.25429887l-.36392772,1.68698269c-.68380367,3.17072652-1.36810792,6.34445656-2.0554157,9.5141819-.01852177.08710237-.08109531.15818591-.16469356.18722004-.02803295.01001177-.05706707.01501765-.08560061.01501765Zm-7.50932562-6.61177073l7.34663441,5.89592941c.65727248-3.03456649,1.31254262-6.07313768,1.96731216-9.10870535l.25580064-1.18639435-9.56974721,4.39917029Z"/><path class="r" d="m456.17402118,233.73611775c3.78358806,0,7.40835885-1.50409303,10.08022597-4.17596016s4.17596016-6.3059801,4.17596016-10.08022597c0-3.78358806-1.50409303-7.40835885-4.17596016-10.08956816-2.67186713-2.67186713-6.29663791-4.17596016-10.08022597-4.17596016s-7.40835885,1.50409303-10.08022597,4.17596016c-2.68120932,2.68120932-4.17596016,6.3059801-4.17596016,10.08956816,0,3.77424587,1.49475084,7.40835885,4.17596016,10.08022597,2.67186713,2.67186713,6.29663791,4.17596016,10.08022597,4.17596016Z"/><path class="q" d="m617.83175688,287.15859118c17.96673646,0,35.20013674-7.14323762,47.91129723-19.84760796,12.70437034-12.70437034,19.84760796-29.94456077,19.84760796-47.91129723,0-17.97352661-7.14323762-35.20692689-19.84760796-47.91808737-12.71116049-12.70437034-29.94456077-19.84081864-47.91129723-19.84081864-17.97352661,0-35.20692689,7.1364483-47.91808737,19.84081864-12.70436868,12.71116049-19.8408174,29.94456077-19.8408174,47.91808737,0,17.96673646,7.13644872,35.20692689,19.8408174,47.91129723,12.71116049,12.70437034,29.94456077,19.84760796,47.91808737,19.84760796Z"/><use width="1.046875" height="1.0625" transform="translate(341.99198099 231.61610535) scale(6.15928692 -6.15928692)" xlink:href="#e"/></svg>